# xmcd
#
# Track frame offsets: 
#        150
#        15359
#        33034
#        48234
#        68692
#        85634
#        98248
#        119524
#        131030
#        150752
#        166172
#        189181
#
# Disc length: 2775 seconds
#
# Revision: 0
# Processed by: cddbd v1.5.2PL0 Copyright (c) Steve Scherf et al.
# Submitted via: ExactAudioCopy v1.0b1
#
DISCID=7d0ad50c
DTITLE=Tuff Crew - Greatest Hits
DYEAR=2008
DGENRE=Hip-Hop
TTITLE0=Techno Tuff
TTITLE1=Smooth Momentum
TTITLE2=Deuce Ace Housin'
TTITLE3=My Part Of Town
TTITLE4=Detonator
TTITLE5=Show 'Em Hell
TTITLE6=My Part Of Town (Remix)
TTITLE7=She Rides The Pony
TTITLE8=Days Of Our Lives
TTITLE9=Northtown Villians
TTITLE10=Jimmy Crack Cord
TTITLE11=Robbin Hoods
EXTD=
EXTT0=
EXTT1=
EXTT2=
EXTT3=
EXTT4=
EXTT5=
EXTT6=
EXTT7=
EXTT8=
EXTT9=
EXTT10=
EXTT11=
PLAYORDER=
